{
  "accessors": [
    {
      "bufferView": 2,
      "componentType": 5126,
      "count": 928,
      "max": [
        25.57293128967285,
        18.761192321777344,
        56.58563232421875
      ],
      "min": [
        -25.563705444335938,
        -18.739795684814453,
        -0.015979766845703125
      ],
      "type": "VEC3"
    },
    {
      "bufferView": 2,
      "byteOffset": 11136,
      "componentType": 5126,
      "count": 928,
      "max": [
        0.998096227645874,
        0.9995181560516357,
        0.9987936615943909
      ],
      "min": [
        -0.9997660517692566,
        -0.9986725449562073,
        -0.9997933506965637
      ],
      "type": "VEC3"
    },
    {
      "bufferView": 3,
      "componentType": 5126,
      "count": 928,
      "max": [
        0.9991356134414673,
        0.9998462796211243,
        1.0,
        1.0
      ],
      "min": [
        -0.9974666833877563,
        -0.9998876452445984,
        -0.9999984502792358,
        -1.0
      ],
      "type": "VEC4"
    },
    {
      "bufferView": 1,
      "componentType": 5126,
      "count": 928,
      "max": [
        0.9999300241470337,
        0.9997360110282898
      ],
      "min": [
        0.00027412676718086004,
        0.000305573339574039
      ],
      "type": "VEC2"
    },
    {
      "bufferView": 1,
      "byteOffset": 7424,
      "componentType": 5126,
      "count": 928,
      "max": [
        0.9999300241470337,
        0.9997360110282898
      ],
      "min": [
        0.00027412676718086004,
        0.000305573339574039
      ],
      "type": "VEC2"
    },
    {
      "bufferView": 1,
      "byteOffset": 14848,
      "componentType": 5126,
      "count": 928,
      "max": [
        0.9999300241470337,
        0.9997360110282898
      ],
      "min": [
        0.00027412676718086004,
        0.000305573339574039
      ],
      "type": "VEC2"
    },
    {
      "bufferView": 1,
      "byteOffset": 22272,
      "componentType": 5126,
      "count": 928,
      "max": [
        0.9999300241470337,
        0.9997360110282898
      ],
      "min": [
        0.00027412676718086004,
        0.000305573339574039
      ],
      "type": "VEC2"
    },
    {
      "bufferView": 1,
      "byteOffset": 29696,
      "componentType": 5126,
      "count": 928,
      "max": [
        0.9999300241470337,
        0.9997360110282898
      ],
      "min": [
        0.00027412676718086004,
        0.000305573339574039
      ],
      "type": "VEC2"
    },
    {
      "bufferView": 1,
      "byteOffset": 37120,
      "componentType": 5126,
      "count": 928,
      "max": [
        0.9999300241470337,
        0.9997360110282898
      ],
      "min": [
        0.00027412676718086004,
        0.000305573339574039
      ],
      "type": "VEC2"
    },
    {
      "bufferView": 1,
      "byteOffset": 44544,
      "componentType": 5126,
      "count": 928,
      "max": [
        0.9999300241470337,
        0.9997360110282898
      ],
      "min": [
        0.00027412676718086004,
        0.000305573339574039
      ],
      "type": "VEC2"
    },
    {
      "bufferView": 1,
      "byteOffset": 51968,
      "componentType": 5126,
      "count": 928,
      "max": [
        0.9999300241470337,
        0.9997360110282898
      ],
      "min": [
        0.00027412676718086004,
        0.000305573339574039
      ],
      "type": "VEC2"
    },
    {
      "bufferView": 1,
      "byteOffset": 59392,
      "componentType": 5126,
      "count": 928,
      "max": [
        0.9999300241470337,
        0.9997360110282898
      ],
      "min": [
        0.00027412676718086004,
        0.000305573339574039
      ],
      "type": "VEC2"
    },
    {
      "bufferView": 1,
      "byteOffset": 66816,
      "componentType": 5126,
      "count": 928,
      "max": [
        0.9999300241470337,
        0.9997360110282898
      ],
      "min": [
        0.00027412676718086004,
        0.000305573339574039
      ],
      "type": "VEC2"
    },
    {
      "bufferView": 0,
      "componentType": 5125,
      "count": 2964,
      "type": "SCALAR"
    }
  ],
  "asset": {
    "extras": {
      "author": "Thunder (https://sketchfab.com/thunderpwn)",
      "license": "CC-BY-SA-4.0 (http://creativecommons.org/licenses/by-sa/4.0/)",
      "source": "https://sketchfab.com/3d-models/garbage-sack-3f19b7f74ae745179b6dbff521c013aa",
      "title": "Garbage Sack"
    },
    "generator": "Sketchfab-12.66.0",
    "version": "2.0"
  },
  "bufferViews": [
    {
      "buffer": 0,
      "byteLength": 11856,
      "name": "floatBufferViews",
      "target": 34963
    },
    {
      "buffer": 0,
      "byteLength": 74240,
      "byteOffset": 11856,
      "byteStride": 8,
      "name": "floatBufferViews",
      "target": 34962
    },
    {
      "buffer": 0,
      "byteLength": 22272,
      "byteOffset": 86096,
      "byteStride": 12,
      "name": "floatBufferViews",
      "target": 34962
    },
    {
      "buffer": 0,
      "byteLength": 14848,
      "byteOffset": 108368,
      "byteStride": 16,
      "name": "floatBufferViews",
      "target": 34962
    }
  ],
  "buffers": [
    {
      "byteLength": 123216,
      "uri": "scene.bin"
    }
  ],
  "images": [
    {
      "uri": "textures/DefaultMaterial_baseColor.png"
    },
    {
      "uri": "textures/DefaultMaterial_metallicRoughness.png"
    },
    {
      "uri": "textures/DefaultMaterial_normal.png"
    }
  ],
  "materials": [
    {
      "doubleSided": true,
      "name": "DefaultMaterial",
      "normalTexture": {
        "index": 2
      },
      "pbrMetallicRoughness": {
        "baseColorTexture": {
          "index": 0
        },
        "metallicRoughnessTexture": {
          "index": 1
        }
      }
    }
  ],
  "meshes": [
    {
      "name": "Cube_DefaultMaterial_0",
      "primitives": [
        {
          "attributes": {
            "NORMAL": 1,
            "POSITION": 0,
            "TANGENT": 2,
            "TEXCOORD_0": 3,
            "TEXCOORD_1": 4,
            "TEXCOORD_2": 5,
            "TEXCOORD_3": 6,
            "TEXCOORD_4": 7,
            "TEXCOORD_5": 8,
            "TEXCOORD_6": 9,
            "TEXCOORD_7": 10,
            "TEXCOORD_8": 11,
            "TEXCOORD_9": 12
          },
          "indices": 13,
          "material": 0,
          "mode": 4
        }
      ]
    }
  ],
  "nodes": [
    {
      "children": [
        1
      ],
      "matrix": [
        1.0,
        0.0,
        0.0,
        0.0,
        0.0,
        2.220446049250313e-16,
        -1.0,
        0.0,
        0.0,
        1.0,
        2.220446049250313e-16,
        0.0,
        0.0,
        0.0,
        0.0,
        1.0
      ],
      "name": "Sketchfab_model"
    },
    {
      "children": [
        2
      ],
      "matrix": [
        1.0,
        0.0,
        0.0,
        0.0,
        0.0,
        0.0,
        1.0,
        0.0,
        0.0,
        -1.0,
        0.0,
        0.0,
        0.0,
        0.0,
        0.0,
        1.0
      ],
      "name": "Plasticbag.fbx"
    },
    {
      "children": [
        3
      ],
      "name": "RootNode"
    },
    {
      "children": [
        4
      ],
      "matrix": [
        1.0,
        0.0,
        0.0,
        0.0,
        0.0,
        -1.331580541386046e-07,
        -0.9999999999999911,
        0.0,
        0.0,
        0.9999999999999911,
        -1.331580541386046e-07,
        0.0,
        0.0,
        0.0,
        0.0,
        1.0
      ],
      "name": "Cube"
    },
    {
      "mesh": 0,
      "name": "Cube_DefaultMaterial_0"
    }
  ],
  "samplers": [
    {
      "magFilter": 9729,
      "minFilter": 9987,
      "wrapS": 10497,
      "wrapT": 10497
    }
  ],
  "scene": 0,
  "scenes": [
    {
      "name": "Sketchfab_Scene",
      "nodes": [
        0
      ]
    }
  ],
  "textures": [
    {
      "sampler": 0,
      "source": 0
    },
    {
      "sampler": 0,
      "source": 1
    },
    {
      "sampler": 0,
      "source": 2
    }
  ]
}
