{
  "accessors": [
    {
      "bufferView": 2,
      "componentType": 5126,
      "count": 2057,
      "max": [
        119.12938690185547,
        105.15374755859375,
        99.9869155883789
      ],
      "min": [
        -95.85111236572266,
        -62.59637451171875,
        -106.09567260742188
      ],
      "type": "VEC3"
    },
    {
      "bufferView": 2,
      "byteOffset": 24684,
      "componentType": 5126,
      "count": 2057,
      "max": [
        0.9994039535522461,
        0.9995309710502625,
        0.9997972249984741
      ],
      "min": [
        -0.9996547698974609,
        -0.9999468326568604,
        -0.9899380207061768
      ],
      "type": "VEC3"
    },
    {
      "bufferView": 3,
      "componentType": 5126,
      "count": 2057,
      "max": [
        0.9998853802680969,
        0.8320218324661255,
        0.999908447265625,
        1.0
      ],
      "min": [
        -0.9998607635498047,
        -0.9506070613861084,
        -0.9955462217330933,
        -1.0
      ],
      "type": "VEC4"
    },
    {
      "bufferView": 1,
      "componentType": 5126,
      "count": 2057,
      "max": [
        0.9900000095367432,
        0.9900000095367432
      ],
      "min": [
        0.009999999776482582,
        0.2216469943523407
      ],
      "type": "VEC2"
    },
    {
      "bufferView": 1,
      "byteOffset": 16456,
      "componentType": 5126,
      "count": 2057,
      "max": [
        0.9900000095367432,
        0.9900000095367432
      ],
      "min": [
        0.009999999776482582,
        0.2216469943523407
      ],
      "type": "VEC2"
    },
    {
      "bufferView": 1,
      "byteOffset": 32912,
      "componentType": 5126,
      "count": 2057,
      "max": [
        0.9900000095367432,
        0.9900000095367432
      ],
      "min": [
        0.009999999776482582,
        0.2216469943523407
      ],
      "type": "VEC2"
    },
    {
      "bufferView": 0,
      "componentType": 5125,
      "count": 11034,
      "type": "SCALAR"
    }
  ],
  "asset": {
    "extras": {
      "author": "Bailief (https://sketchfab.com/Bailief)",
      "license": "CC-BY-4.0 (http://creativecommons.org/licenses/by/4.0/)",
      "source": "https://sketchfab.com/3d-models/garbage-bag-bf200222d79d4411aade19ddf312f122",
      "title": "Garbage Bag"
    },
    "generator": "Sketchfab-12.68.0",
    "version": "2.0"
  },
  "bufferViews": [
    {
      "buffer": 0,
      "byteLength": 44136,
      "name": "floatBufferViews",
      "target": 34963
    },
    {
      "buffer": 0,
      "byteLength": 49368,
      "byteOffset": 44136,
      "byteStride": 8,
      "name": "floatBufferViews",
      "target": 34962
    },
    {
      "buffer": 0,
      "byteLength": 49368,
      "byteOffset": 93504,
      "byteStride": 12,
      "name": "floatBufferViews",
      "target": 34962
    },
    {
      "buffer": 0,
      "byteLength": 32912,
      "byteOffset": 142872,
      "byteStride": 16,
      "name": "floatBufferViews",
      "target": 34962
    }
  ],
  "buffers": [
    {
      "byteLength": 175784,
      "uri": "scene.bin"
    }
  ],
  "images": [
    {
      "uri": "textures/Garbage_Bag_baseColor.png"
    },
    {
      "uri": "textures/Garbage_Bag_metallicRoughness.png"
    },
    {
      "uri": "textures/Garbage_Bag_emissive.png"
    },
    {
      "uri": "textures/Garbage_Bag_normal.png"
    }
  ],
  "materials": [
    {
      "doubleSided": true,
      "emissiveFactor": [
        1.0,
        1.0,
        1.0
      ],
      "emissiveTexture": {
        "index": 2
      },
      "name": "Garbage_Bag",
      "normalTexture": {
        "index": 3
      },
      "occlusionTexture": {
        "index": 1
      },
      "pbrMetallicRoughness": {
        "baseColorTexture": {
          "index": 0
        },
        "metallicRoughnessTexture": {
          "index": 1
        },
        "roughnessFactor": 0.2029344512195122
      }
    }
  ],
  "meshes": [
    {
      "name": "Garbage_Bag2_Garbage_Bag_0",
      "primitives": [
        {
          "attributes": {
            "NORMAL": 1,
            "POSITION": 0,
            "TANGENT": 2,
            "TEXCOORD_0": 3,
            "TEXCOORD_1": 4,
            "TEXCOORD_2": 5
          },
          "indices": 6,
          "material": 0,
          "mode": 4
        }
      ]
    }
  ],
  "nodes": [
    {
      "children": [
        1
      ],
      "matrix": [
        1.0,
        0.0,
        0.0,
        0.0,
        0.0,
        2.220446049250313e-16,
        -1.0,
        0.0,
        0.0,
        1.0,
        2.220446049250313e-16,
        0.0,
        0.0,
        0.0,
        0.0,
        1.0
      ],
      "name": "Sketchfab_model"
    },
    {
      "children": [
        2
      ],
      "matrix": [
        1.0,
        0.0,
        0.0,
        0.0,
        0.0,
        0.0,
        1.0,
        0.0,
        0.0,
        -1.0,
        0.0,
        0.0,
        0.0,
        0.0,
        0.0,
        1.0
      ],
      "name": "Garbage_Bag.Fbx"
    },
    {
      "children": [
        3
      ],
      "name": "RootNode"
    },
    {
      "children": [
        4
      ],
      "name": "Garbage_Bag2"
    },
    {
      "mesh": 0,
      "name": "Garbage_Bag2_Garbage_Bag_0"
    }
  ],
  "samplers": [
    {
      "magFilter": 9729,
      "minFilter": 9987,
      "wrapS": 10497,
      "wrapT": 10497
    }
  ],
  "scene": 0,
  "scenes": [
    {
      "name": "Sketchfab_Scene",
      "nodes": [
        0
      ]
    }
  ],
  "textures": [
    {
      "sampler": 0,
      "source": 0
    },
    {
      "sampler": 0,
      "source": 1
    },
    {
      "sampler": 0,
      "source": 2
    },
    {
      "sampler": 0,
      "source": 3
    }
  ]
}
